PathFileType	4	(X/Y/Z)	54_2_rein_57_p1_0-589.trc
DataRate	CameraRate	NumFrames	NumMarkers	Units	OrigDataRate	OrigDataStartFrame	OrigNumFrames
59.0	59.0	5	27	m	59.0	0	590
Frame#	Time	RHip			RKnee			RAnkle			RBigToe			RSmallToe			RHeel			LHip			LKnee			LAnkle			LBigToe			LSmallToe			LHeel			Neck			Head			Nose			RShoulder			RElbow			RWrist			RThumb			RIndex			RPinky			LShoulder			LElbow			LWrist			LThumb			LIndex			LPinky			
		X1	Y1	Z1	X2	Y2	Z2	X3	Y3	Z3	X4	Y4	Z4	X5	Y5	Z5	X6	Y6	Z6	X7	Y7	Z7	X8	Y8	Z8	X9	Y9	Z9	X10	Y10	Z10	X11	Y11	Z11	X12	Y12	Z12	X13	Y13	Z13	X14	Y14	Z14	X15	Y15	Z15	X16	Y16	Z16	X17	Y17	Z17	X18	Y18	Z18	X19	Y19	Z19	X20	Y20	Z20	X21	Y21	Z21	X22	Y22	Z22	X23	Y23	Z23	X24	Y24	Z24	X25	Y25	Z25	X26	Y26	Z26	X27	Y27	Z27	
0	0.0	0.2922676421162177	0.5238533296060313	0.9497049013424519	0.29363048425742233	0.5629802191375831	1.4683203730596681	0.2683100081709537	0.5566148657587183	1.9254816111293322	0.22848511026226062	0.38071521001555964	1.9613291207678647	0.2891249180168114	0.4183752958105131	1.9815865713400656	0.24716530409676216	0.6393030171515995	1.998294950129138	0.0677962451887774	0.5631144610657213	0.9515989707542263	0.08000223928278588	0.5658215707710625	1.4574749366411532	0.06512226444668265	0.5664120668651234	1.886504587968322	0.06337618006480666	0.40420213543506095	1.959062665961987	0.009721461714745671	0.4386128542587884	1.9666605048783412	0.08160061677074289	0.5977998654394642	1.922472763890342	0.2189274188601102	0.5108617125269831	0.4168704261228232	0.22503082416654924	0.4401900800670472	0.16032415410274214	0.23231989708246792	0.4028392710111352	0.3069450165965387	0.3676667824575902	0.5268407632867294	0.516572618425472	0.40640644094980183	0.49206720718347535	0.7949155334804722	0.3730095957983848	0.42743851567595337	1.0606326626014126	0.3027394266579245	0.3929260150146377	1.1784190946030482	0.31780008008009647	0.39842736649181143	1.1948709697238988	0.36272224658492985	0.45424878365796717	1.2192694479289592	0.04898169142875881	0.5693770550411766	0.4739254669882272	-0.016146421423565226	0.5646316204350825	0.7559220583906001	-0.015504705122517249	0.4829122872723995	1.0332297420891214	0.027035614474573665	0.45872180611042235	1.1381159428033956	-0.005470977869864592	0.44503522315231453	1.1458202535813622	-0.04640435737381136	0.47517566957684987	1.1550024103634535
1	0.01694915254237288	0.2964940740687735	0.5089776391877392	0.9531028770353561	0.2935793882266521	0.5630491546772026	1.468372337840692	0.26752068073907775	0.5533148126885231	1.923221960354438	0.22372862146702385	0.37168374153010525	1.9494747133398167	0.28542688304529396	0.40803450252821577	1.9737809524691106	0.24534822775548593	0.6381310307066866	2.0033304020120384	0.07231747240419714	0.5499993455551153	0.947743144182738	0.07925378335301916	0.5646894388265593	1.4518481782470931	0.06516005047467585	0.5662661974696893	1.886403127554713	0.06368106766813274	0.3781775741493016	1.9452370836322048	0.009737642995697529	0.43831138647602735	1.9666867184168375	0.08207150503739766	0.5967236207960536	1.9262664000939933	0.21889131362300254	0.5106635985954375	0.4168112580002344	0.22487798901027417	0.44047624609599323	0.1602248672715409	0.2290151503790666	0.39393299179004376	0.30601096447316817	0.3706166454268357	0.5134779176491366	0.5143554442318096	0.4064078869360902	0.4923275604489032	0.7949037643558604	0.3729127264051763	0.4273479383656615	1.060578245096222	0.30207168835800896	0.393398231162089	1.182179464594695	0.32151802822973496	0.40861941493745363	1.199035960617164	0.36245493179702354	0.454791290533124	1.2190587872144338	0.048980605604277194	0.5688978628090037	0.473880004268447	-0.016143755635944407	0.5645772569712144	0.7560634959371377	-0.01978985386719522	0.49579181698010466	1.034298334111728	0.026990053207781542	0.45892730402538556	1.1381012301482403	-0.005226691725365123	0.4454927573591153	1.1458766396810778	-0.046369258830363864	0.4753982146520188	1.1549509211587545
2	0.03389830508474576	0.29303334096603606	0.5230831310611379	0.9575781345466374	0.29351093736158196	0.5629110233989024	1.4682496960386837	0.2685181821147213	0.5547099661590107	1.929024489280301	0.22382838064289565	0.3717299393839192	1.9496837793278254	0.2927173677407029	0.4030948757420023	1.9702735459391831	0.2458687840394902	0.6373130776314896	2.007263052680752	0.06443060189987404	0.5603075603171893	0.9545087478382324	0.07926676149384604	0.5647383929248408	1.4519533344769056	0.06521804279579903	0.5662240623698332	1.8864839599817862	0.066949197607442	0.3896579106165253	1.953189070340632	0.008505627217584138	0.4387825560201125	1.9711748298685159	0.08196868067835418	0.5963697019792238	1.926296536824003	0.21892229641124583	0.5106535123301155	0.4168244985547591	0.22485412344095265	0.44043543134632746	0.16018920518899446	0.22889489121642684	0.3939867575159937	0.3059574554895961	0.37063731256293214	0.5134613638771774	0.5143736254881289	0.40661004038424514	0.49266986109333294	0.7949115678980682	0.37293319283429244	0.4275536996001088	1.0606706741712695	0.3020702895507602	0.39330681445263466	1.1822868385361744	0.3214257349774874	0.4084525222819389	1.1991216310645414	0.3623878293015105	0.4547458022331743	1.219025617404707	0.04893909019152793	0.5690514471165575	0.47393749467180896	-0.016695401293703102	0.5645177297240853	0.759446580670117	-0.020338883487420457	0.4960457832972173	1.0378245806521218	0.027229897910691293	0.4574960980439908	1.1413461864895198	-0.005358629628022546	0.44490676542920593	1.1456778225624922	-0.043901502492409566	0.4869037954175507	1.1596210405309995
3	0.05084745762711865	0.29306120761995774	0.5231748873841134	0.9574618526185755	0.2898101164377903	0.5780980807946418	1.475731391350942	0.2686001632360019	0.5549658932197656	1.9292518017167684	0.2203904014398716	0.3600045320936669	1.9464218426186335	0.2886967399372225	0.39212239853112196	1.9631373600296467	0.24662317474724058	0.638693434837021	2.0084961086159976	0.06779082747416317	0.5631836674750275	0.9516944790146938	0.07861611936102667	0.5635388134296904	1.44637591741275	0.06519276958450762	0.5663196158126765	1.886547190044513	0.07210515061280191	0.3899584092201535	1.9444302725265834	0.009752198984855853	0.4382309019470494	1.9665766860349185	0.08071147718842006	0.5967216983896484	1.9324183928812264	0.2189066195792758	0.5106738099376869	0.4168254288355416	0.22483020961988734	0.44030608610197064	0.16018348634805343	0.22896234509783372	0.39361133934808606	0.30600330346305593	0.370629522418438	0.5132898012909904	0.5143227756717007	0.40658635429038	0.49293770187912545	0.7950495840000611	0.37291300781846337	0.4274489018295046	1.0606433406161544	0.3020903415265648	0.3933358467155477	1.1821941939767793	0.3208680541942259	0.40862675721624037	1.2029686506823594	0.3625006053583667	0.4544202866333435	1.2190191206432226	0.04890833092375913	0.5689007632000533	0.4739458764206979	-0.01665656391913639	0.5644179459837088	0.7595751584785436	-0.01531554524420299	0.4824698778344514	1.033158871233288	0.027033427092233532	0.45874458501212034	1.1381063033150545	-0.005061144585012612	0.445118251645437	1.1456483714961485	-0.043803208413949184	0.48694808285830193	1.1594185319212473
4	0.06779661016949153	0.29646979831875103	0.5090725241019198	0.953116268827516	0.2935420179990279	0.5631964704680582	1.4684070475104225	0.2674927534993469	0.5533126554557909	1.9232857822206664	0.22382818473318733	0.3715365720854709	1.9494980577651166	0.2888666272713712	0.392602254543944	1.963041519214092	0.24579372415477765	0.6366603236064422	2.006647496517794	0.06422763607614534	0.5603741378741004	0.9546706789032312	0.0792941840477842	0.5647250670319957	1.4520275312217261	0.06522017225661617	0.5664820051217939	1.8867408515931194	0.0717436526957252	0.3914277619409654	1.954428310527882	0.008512373173563447	0.4387702133057686	1.971311236505059	0.07576233554537938	0.6128358274627026	1.9424914757325598	0.21890275251431876	0.5106292660856291	0.41681821801519753	0.22485604530748207	0.4404640436187041	0.16017268299739834	0.22905010620504118	0.3940242335668844	0.3060579901176933	0.37068177989689444	0.5135107993041633	0.5143561157647026	0.40663951475008564	0.49275056134442813	0.7949737769866903	0.3729636036842172	0.4274810704486486	1.0605860965637532	0.3023546837821671	0.3920579570163975	1.1854783774068436	0.3209281638023017	0.40860094197956204	1.2029316037962374	0.3618296497246414	0.4407584723410283	1.2133548431432577	0.048940976567512236	0.5693157368179654	0.47727084501420336	-0.016640545457805526	0.5644188470734579	0.7595508942656126	-0.015390491662265325	0.4826260323480239	1.033228725137671	0.027215419174176927	0.45751785323279703	1.1413608069378895	-0.0052199065373031445	0.44511451705938454	1.1456732158852538	-0.043873437628174514	0.4866803869760609	1.159304134949886
